<svg xmlns="http://www.w3.org/2000/svg" width="594.0" height="264" viewBox="0 0 594.0 264"><path d="M102.0,52 H146.0" fill="none" stroke="#2563eb" stroke-width="2" stroke-linecap="round"/><path d="M234.0,52 H278.0" fill="none" stroke="#2563eb" stroke-width="2" stroke-linecap="round"/><path d="M366.0,52 H410.0" fill="none" stroke="#2563eb" stroke-width="2" stroke-linecap="round"/><path d="M462.0,78 C462.0,97.0 396.0,97.0 396.0,116" fill="none" stroke="#2563eb" stroke-width="2" stroke-linecap="round"/><path d="M462.0,78 C462.0,97.0 528.0,97.0 528.0,116" fill="none" stroke="#cbd5e1" stroke-width="2" stroke-linecap="round"/><path d="M396.0,168 C396.0,187.0 396.0,187.0 396.0,206" fill="none" stroke="#cbd5e1" stroke-width="2" stroke-linecap="round"/><rect x="344.0" y="206" width="88" height="52" rx="5" fill="#ffffff" stroke="#cbd5e1" stroke-width="1"/><rect x="349.5" y="209.5" width="45" height="45" fill="white" stroke="#334155" stroke-width="0.9"/><path d="M357.0,209.5 v45 M349.5,217.0 h45" stroke="#e2e8f0" stroke-width="0.4"/><path d="M364.5,209.5 v45 M349.5,224.5 h45" stroke="#e2e8f0" stroke-width="0.4"/><path d="M372.0,209.5 v45 M349.5,232.0 h45" stroke="#e2e8f0" stroke-width="0.4"/><path d="M379.5,209.5 v45 M349.5,239.5 h45" stroke="#e2e8f0" stroke-width="0.4"/><path d="M387.0,209.5 v45 M349.5,247.0 h45" stroke="#e2e8f0" stroke-width="0.4"/><path d="M357.0,209.5 v7.5" stroke="#334155" stroke-width="0.9"/><path d="M357.0,239.5 v7.5" stroke="#334155" stroke-width="0.9"/><path d="M364.5,217.0 v7.5" stroke="#334155" stroke-width="0.9"/><path d="M364.5,239.5 v7.5" stroke="#334155" stroke-width="0.9"/><path d="M364.5,247.0 v7.5" stroke="#334155" stroke-width="0.9"/><path d="M372.0,209.5 v7.5" stroke="#334155" stroke-width="0.9"/><path d="M372.0,217.0 v7.5" stroke="#334155" stroke-width="0.9"/><path d="M372.0,232.0 v7.5" stroke="#334155" stroke-width="0.9"/><path d="M379.5,224.5 v7.5" stroke="#334155" stroke-width="0.9"/><path d="M379.5,239.5 v7.5" stroke="#334155" stroke-width="0.9"/><path d="M387.0,217.0 v7.5" stroke="#334155" stroke-width="0.9"/><path d="M387.0,232.0 v7.5" stroke="#334155" stroke-width="0.9"/><path d="M387.0,239.5 v7.5" stroke="#334155" stroke-width="0.9"/><path d="M372.0,217.0 h7.5" stroke="#334155" stroke-width="0.9"/><path d="M349.5,224.5 h7.5" stroke="#334155" stroke-width="0.9"/><path d="M357.0,224.5 h7.5" stroke="#334155" stroke-width="0.9"/><path d="M387.0,224.5 h7.5" stroke="#334155" stroke-width="0.9"/><path d="M357.0,232.0 h7.5" stroke="#334155" stroke-width="0.9"/><path d="M364.5,232.0 h7.5" stroke="#334155" stroke-width="0.9"/><path d="M372.0,232.0 h7.5" stroke="#334155" stroke-width="0.9"/><path d="M379.5,232.0 h7.5" stroke="#334155" stroke-width="0.9"/><path d="M349.5,247.0 h7.5" stroke="#334155" stroke-width="0.9"/><path d="M364.5,247.0 h7.5" stroke="#334155" stroke-width="0.9"/><path d="M372.0,247.0 h7.5" stroke="#334155" stroke-width="0.9"/><polyline points="353.25,250.75 360.75,250.75 360.75,243.25 360.75,235.75 368.25,235.75 368.25,243.25" fill="none" stroke="#2563eb" stroke-width="1.4" stroke-linejoin="round"/><circle cx="353.25" cy="250.75" r="1.6" fill="#2563eb"/><path d="M390.75,211.25 l-2,4 h4 Z" fill="#dc2626"/><circle cx="368.25" cy="243.25" r="2" fill="#64748b" stroke="white" stroke-width="0.6"/><text x="403.5" y="222.0" text-anchor="start" font-family="Arial" font-size="10" fill="#334155">(2,1)</text><text x="403.5" y="236.0" text-anchor="start" font-family="Arial" font-size="10" fill="#334155">g=5</text><text x="403.5" y="250.0" text-anchor="start" font-family="Arial" font-size="10" fill="#334155">ĥ=7</text><rect x="344.0" y="116" width="88" height="52" rx="5" fill="#fef2f2" stroke="#dc2626" stroke-width="2"/><rect x="344.0" y="96" width="38" height="16" rx="4" fill="#dc2626"/><text x="349.0" y="108" font-family="Noto Sans KR" font-size="10" font-weight="bold" fill="white">5  종료</text><rect x="349.5" y="119.5" width="45" height="45" fill="white" stroke="#334155" stroke-width="0.9"/><path d="M357.0,119.5 v45 M349.5,127.0 h45" stroke="#e2e8f0" stroke-width="0.4"/><path d="M364.5,119.5 v45 M349.5,134.5 h45" stroke="#e2e8f0" stroke-width="0.4"/><path d="M372.0,119.5 v45 M349.5,142.0 h45" stroke="#e2e8f0" stroke-width="0.4"/><path d="M379.5,119.5 v45 M349.5,149.5 h45" stroke="#e2e8f0" stroke-width="0.4"/><path d="M387.0,119.5 v45 M349.5,157.0 h45" stroke="#e2e8f0" stroke-width="0.4"/><path d="M357.0,119.5 v7.5" stroke="#334155" stroke-width="0.9"/><path d="M357.0,149.5 v7.5" stroke="#334155" stroke-width="0.9"/><path d="M364.5,127.0 v7.5" stroke="#334155" stroke-width="0.9"/><path d="M364.5,149.5 v7.5" stroke="#334155" stroke-width="0.9"/><path d="M364.5,157.0 v7.5" stroke="#334155" stroke-width="0.9"/><path d="M372.0,119.5 v7.5" stroke="#334155" stroke-width="0.9"/><path d="M372.0,127.0 v7.5" stroke="#334155" stroke-width="0.9"/><path d="M372.0,142.0 v7.5" stroke="#334155" stroke-width="0.9"/><path d="M379.5,134.5 v7.5" stroke="#334155" stroke-width="0.9"/><path d="M379.5,149.5 v7.5" stroke="#334155" stroke-width="0.9"/><path d="M387.0,127.0 v7.5" stroke="#334155" stroke-width="0.9"/><path d="M387.0,142.0 v7.5" stroke="#334155" stroke-width="0.9"/><path d="M387.0,149.5 v7.5" stroke="#334155" stroke-width="0.9"/><path d="M372.0,127.0 h7.5" stroke="#334155" stroke-width="0.9"/><path d="M349.5,134.5 h7.5" stroke="#334155" stroke-width="0.9"/><path d="M357.0,134.5 h7.5" stroke="#334155" stroke-width="0.9"/><path d="M387.0,134.5 h7.5" stroke="#334155" stroke-width="0.9"/><path d="M357.0,142.0 h7.5" stroke="#334155" stroke-width="0.9"/><path d="M364.5,142.0 h7.5" stroke="#334155" stroke-width="0.9"/><path d="M372.0,142.0 h7.5" stroke="#334155" stroke-width="0.9"/><path d="M379.5,142.0 h7.5" stroke="#334155" stroke-width="0.9"/><path d="M349.5,157.0 h7.5" stroke="#334155" stroke-width="0.9"/><path d="M364.5,157.0 h7.5" stroke="#334155" stroke-width="0.9"/><path d="M372.0,157.0 h7.5" stroke="#334155" stroke-width="0.9"/><polyline points="353.25,160.75 360.75,160.75 360.75,153.25 360.75,145.75 368.25,145.75" fill="none" stroke="#2563eb" stroke-width="1.4" stroke-linejoin="round"/><circle cx="353.25" cy="160.75" r="1.6" fill="#2563eb"/><path d="M390.75,121.25 l-2,4 h4 Z" fill="#dc2626"/><circle cx="368.25" cy="145.75" r="2" fill="#dc2626" stroke="white" stroke-width="0.6"/><text x="403.5" y="132.0" text-anchor="start" font-family="Arial" font-size="10" fill="#334155">(2,2)</text><text x="403.5" y="146.0" text-anchor="start" font-family="Arial" font-size="10" fill="#334155">g=4</text><text x="403.5" y="160.0" text-anchor="start" font-family="Arial" font-size="10" fill="#334155">ĥ=6</text><rect x="476.0" y="116" width="88" height="52" rx="5" fill="#ffffff" stroke="#cbd5e1" stroke-width="1"/><rect x="481.5" y="119.5" width="45" height="45" fill="white" stroke="#334155" stroke-width="0.9"/><path d="M489.0,119.5 v45 M481.5,127.0 h45" stroke="#e2e8f0" stroke-width="0.4"/><path d="M496.5,119.5 v45 M481.5,134.5 h45" stroke="#e2e8f0" stroke-width="0.4"/><path d="M504.0,119.5 v45 M481.5,142.0 h45" stroke="#e2e8f0" stroke-width="0.4"/><path d="M511.5,119.5 v45 M481.5,149.5 h45" stroke="#e2e8f0" stroke-width="0.4"/><path d="M519.0,119.5 v45 M481.5,157.0 h45" stroke="#e2e8f0" stroke-width="0.4"/><path d="M489.0,119.5 v7.5" stroke="#334155" stroke-width="0.9"/><path d="M489.0,149.5 v7.5" stroke="#334155" stroke-width="0.9"/><path d="M496.5,127.0 v7.5" stroke="#334155" stroke-width="0.9"/><path d="M496.5,149.5 v7.5" stroke="#334155" stroke-width="0.9"/><path d="M496.5,157.0 v7.5" stroke="#334155" stroke-width="0.9"/><path d="M504.0,119.5 v7.5" stroke="#334155" stroke-width="0.9"/><path d="M504.0,127.0 v7.5" stroke="#334155" stroke-width="0.9"/><path d="M504.0,142.0 v7.5" stroke="#334155" stroke-width="0.9"/><path d="M511.5,134.5 v7.5" stroke="#334155" stroke-width="0.9"/><path d="M511.5,149.5 v7.5" stroke="#334155" stroke-width="0.9"/><path d="M519.0,127.0 v7.5" stroke="#334155" stroke-width="0.9"/><path d="M519.0,142.0 v7.5" stroke="#334155" stroke-width="0.9"/><path d="M519.0,149.5 v7.5" stroke="#334155" stroke-width="0.9"/><path d="M504.0,127.0 h7.5" stroke="#334155" stroke-width="0.9"/><path d="M481.5,134.5 h7.5" stroke="#334155" stroke-width="0.9"/><path d="M489.0,134.5 h7.5" stroke="#334155" stroke-width="0.9"/><path d="M519.0,134.5 h7.5" stroke="#334155" stroke-width="0.9"/><path d="M489.0,142.0 h7.5" stroke="#334155" stroke-width="0.9"/><path d="M496.5,142.0 h7.5" stroke="#334155" stroke-width="0.9"/><path d="M504.0,142.0 h7.5" stroke="#334155" stroke-width="0.9"/><path d="M511.5,142.0 h7.5" stroke="#334155" stroke-width="0.9"/><path d="M481.5,157.0 h7.5" stroke="#334155" stroke-width="0.9"/><path d="M496.5,157.0 h7.5" stroke="#334155" stroke-width="0.9"/><path d="M504.0,157.0 h7.5" stroke="#334155" stroke-width="0.9"/><polyline points="485.25,160.75 492.75,160.75 492.75,153.25 492.75,145.75 485.25,145.75" fill="none" stroke="#2563eb" stroke-width="1.4" stroke-linejoin="round"/><circle cx="485.25" cy="160.75" r="1.6" fill="#2563eb"/><path d="M522.75,121.25 l-2,4 h4 Z" fill="#dc2626"/><circle cx="485.25" cy="145.75" r="2" fill="#64748b" stroke="white" stroke-width="0.6"/><text x="535.5" y="132.0" text-anchor="start" font-family="Arial" font-size="10" fill="#334155">(0,2)</text><text x="535.5" y="146.0" text-anchor="start" font-family="Arial" font-size="10" fill="#334155">g=4</text><text x="535.5" y="160.0" text-anchor="start" font-family="Arial" font-size="10" fill="#334155">ĥ=8</text><rect x="410.0" y="26" width="88" height="52" rx="5" fill="#eff6ff" stroke="#93c5fd" stroke-width="1"/><rect x="410.0" y="6" width="16" height="16" rx="4" fill="#2563eb"/><text x="415.0" y="18" font-family="Noto Sans KR" font-size="10" font-weight="bold" fill="white">4</text><rect x="415.5" y="29.5" width="45" height="45" fill="white" stroke="#334155" stroke-width="0.9"/><path d="M423.0,29.5 v45 M415.5,37.0 h45" stroke="#e2e8f0" stroke-width="0.4"/><path d="M430.5,29.5 v45 M415.5,44.5 h45" stroke="#e2e8f0" stroke-width="0.4"/><path d="M438.0,29.5 v45 M415.5,52.0 h45" stroke="#e2e8f0" stroke-width="0.4"/><path d="M445.5,29.5 v45 M415.5,59.5 h45" stroke="#e2e8f0" stroke-width="0.4"/><path d="M453.0,29.5 v45 M415.5,67.0 h45" stroke="#e2e8f0" stroke-width="0.4"/><path d="M423.0,29.5 v7.5" stroke="#334155" stroke-width="0.9"/><path d="M423.0,59.5 v7.5" stroke="#334155" stroke-width="0.9"/><path d="M430.5,37.0 v7.5" stroke="#334155" stroke-width="0.9"/><path d="M430.5,59.5 v7.5" stroke="#334155" stroke-width="0.9"/><path d="M430.5,67.0 v7.5" stroke="#334155" stroke-width="0.9"/><path d="M438.0,29.5 v7.5" stroke="#334155" stroke-width="0.9"/><path d="M438.0,37.0 v7.5" stroke="#334155" stroke-width="0.9"/><path d="M438.0,52.0 v7.5" stroke="#334155" stroke-width="0.9"/><path d="M445.5,44.5 v7.5" stroke="#334155" stroke-width="0.9"/><path d="M445.5,59.5 v7.5" stroke="#334155" stroke-width="0.9"/><path d="M453.0,37.0 v7.5" stroke="#334155" stroke-width="0.9"/><path d="M453.0,52.0 v7.5" stroke="#334155" stroke-width="0.9"/><path d="M453.0,59.5 v7.5" stroke="#334155" stroke-width="0.9"/><path d="M438.0,37.0 h7.5" stroke="#334155" stroke-width="0.9"/><path d="M415.5,44.5 h7.5" stroke="#334155" stroke-width="0.9"/><path d="M423.0,44.5 h7.5" stroke="#334155" stroke-width="0.9"/><path d="M453.0,44.5 h7.5" stroke="#334155" stroke-width="0.9"/><path d="M423.0,52.0 h7.5" stroke="#334155" stroke-width="0.9"/><path d="M430.5,52.0 h7.5" stroke="#334155" stroke-width="0.9"/><path d="M438.0,52.0 h7.5" stroke="#334155" stroke-width="0.9"/><path d="M445.5,52.0 h7.5" stroke="#334155" stroke-width="0.9"/><path d="M415.5,67.0 h7.5" stroke="#334155" stroke-width="0.9"/><path d="M430.5,67.0 h7.5" stroke="#334155" stroke-width="0.9"/><path d="M438.0,67.0 h7.5" stroke="#334155" stroke-width="0.9"/><polyline points="419.25,70.75 426.75,70.75 426.75,63.25 426.75,55.75" fill="none" stroke="#2563eb" stroke-width="1.4" stroke-linejoin="round"/><circle cx="419.25" cy="70.75" r="1.6" fill="#2563eb"/><path d="M456.75,31.25 l-2,4 h4 Z" fill="#dc2626"/><circle cx="426.75" cy="55.75" r="2" fill="#2563eb" stroke="white" stroke-width="0.6"/><text x="469.5" y="42.0" text-anchor="start" font-family="Arial" font-size="10" fill="#334155">(1,2)</text><text x="469.5" y="56.0" text-anchor="start" font-family="Arial" font-size="10" fill="#334155">g=3</text><text x="469.5" y="70.0" text-anchor="start" font-family="Arial" font-size="10" fill="#334155">ĥ=7</text><rect x="278.0" y="26" width="88" height="52" rx="5" fill="#eff6ff" stroke="#93c5fd" stroke-width="1"/><rect x="278.0" y="6" width="16" height="16" rx="4" fill="#2563eb"/><text x="283.0" y="18" font-family="Noto Sans KR" font-size="10" font-weight="bold" fill="white">3</text><rect x="283.5" y="29.5" width="45" height="45" fill="white" stroke="#334155" stroke-width="0.9"/><path d="M291.0,29.5 v45 M283.5,37.0 h45" stroke="#e2e8f0" stroke-width="0.4"/><path d="M298.5,29.5 v45 M283.5,44.5 h45" stroke="#e2e8f0" stroke-width="0.4"/><path d="M306.0,29.5 v45 M283.5,52.0 h45" stroke="#e2e8f0" stroke-width="0.4"/><path d="M313.5,29.5 v45 M283.5,59.5 h45" stroke="#e2e8f0" stroke-width="0.4"/><path d="M321.0,29.5 v45 M283.5,67.0 h45" stroke="#e2e8f0" stroke-width="0.4"/><path d="M291.0,29.5 v7.5" stroke="#334155" stroke-width="0.9"/><path d="M291.0,59.5 v7.5" stroke="#334155" stroke-width="0.9"/><path d="M298.5,37.0 v7.5" stroke="#334155" stroke-width="0.9"/><path d="M298.5,59.5 v7.5" stroke="#334155" stroke-width="0.9"/><path d="M298.5,67.0 v7.5" stroke="#334155" stroke-width="0.9"/><path d="M306.0,29.5 v7.5" stroke="#334155" stroke-width="0.9"/><path d="M306.0,37.0 v7.5" stroke="#334155" stroke-width="0.9"/><path d="M306.0,52.0 v7.5" stroke="#334155" stroke-width="0.9"/><path d="M313.5,44.5 v7.5" stroke="#334155" stroke-width="0.9"/><path d="M313.5,59.5 v7.5" stroke="#334155" stroke-width="0.9"/><path d="M321.0,37.0 v7.5" stroke="#334155" stroke-width="0.9"/><path d="M321.0,52.0 v7.5" stroke="#334155" stroke-width="0.9"/><path d="M321.0,59.5 v7.5" stroke="#334155" stroke-width="0.9"/><path d="M306.0,37.0 h7.5" stroke="#334155" stroke-width="0.9"/><path d="M283.5,44.5 h7.5" stroke="#334155" stroke-width="0.9"/><path d="M291.0,44.5 h7.5" stroke="#334155" stroke-width="0.9"/><path d="M321.0,44.5 h7.5" stroke="#334155" stroke-width="0.9"/><path d="M291.0,52.0 h7.5" stroke="#334155" stroke-width="0.9"/><path d="M298.5,52.0 h7.5" stroke="#334155" stroke-width="0.9"/><path d="M306.0,52.0 h7.5" stroke="#334155" stroke-width="0.9"/><path d="M313.5,52.0 h7.5" stroke="#334155" stroke-width="0.9"/><path d="M283.5,67.0 h7.5" stroke="#334155" stroke-width="0.9"/><path d="M298.5,67.0 h7.5" stroke="#334155" stroke-width="0.9"/><path d="M306.0,67.0 h7.5" stroke="#334155" stroke-width="0.9"/><polyline points="287.25,70.75 294.75,70.75 294.75,63.25" fill="none" stroke="#2563eb" stroke-width="1.4" stroke-linejoin="round"/><circle cx="287.25" cy="70.75" r="1.6" fill="#2563eb"/><path d="M324.75,31.25 l-2,4 h4 Z" fill="#dc2626"/><circle cx="294.75" cy="63.25" r="2" fill="#2563eb" stroke="white" stroke-width="0.6"/><text x="337.5" y="42.0" text-anchor="start" font-family="Arial" font-size="10" fill="#334155">(1,1)</text><text x="337.5" y="56.0" text-anchor="start" font-family="Arial" font-size="10" fill="#334155">g=2</text><text x="337.5" y="70.0" text-anchor="start" font-family="Arial" font-size="10" fill="#334155">ĥ=8</text><rect x="146.0" y="26" width="88" height="52" rx="5" fill="#eff6ff" stroke="#93c5fd" stroke-width="1"/><rect x="146.0" y="6" width="16" height="16" rx="4" fill="#2563eb"/><text x="151.0" y="18" font-family="Noto Sans KR" font-size="10" font-weight="bold" fill="white">2</text><rect x="151.5" y="29.5" width="45" height="45" fill="white" stroke="#334155" stroke-width="0.9"/><path d="M159.0,29.5 v45 M151.5,37.0 h45" stroke="#e2e8f0" stroke-width="0.4"/><path d="M166.5,29.5 v45 M151.5,44.5 h45" stroke="#e2e8f0" stroke-width="0.4"/><path d="M174.0,29.5 v45 M151.5,52.0 h45" stroke="#e2e8f0" stroke-width="0.4"/><path d="M181.5,29.5 v45 M151.5,59.5 h45" stroke="#e2e8f0" stroke-width="0.4"/><path d="M189.0,29.5 v45 M151.5,67.0 h45" stroke="#e2e8f0" stroke-width="0.4"/><path d="M159.0,29.5 v7.5" stroke="#334155" stroke-width="0.9"/><path d="M159.0,59.5 v7.5" stroke="#334155" stroke-width="0.9"/><path d="M166.5,37.0 v7.5" stroke="#334155" stroke-width="0.9"/><path d="M166.5,59.5 v7.5" stroke="#334155" stroke-width="0.9"/><path d="M166.5,67.0 v7.5" stroke="#334155" stroke-width="0.9"/><path d="M174.0,29.5 v7.5" stroke="#334155" stroke-width="0.9"/><path d="M174.0,37.0 v7.5" stroke="#334155" stroke-width="0.9"/><path d="M174.0,52.0 v7.5" stroke="#334155" stroke-width="0.9"/><path d="M181.5,44.5 v7.5" stroke="#334155" stroke-width="0.9"/><path d="M181.5,59.5 v7.5" stroke="#334155" stroke-width="0.9"/><path d="M189.0,37.0 v7.5" stroke="#334155" stroke-width="0.9"/><path d="M189.0,52.0 v7.5" stroke="#334155" stroke-width="0.9"/><path d="M189.0,59.5 v7.5" stroke="#334155" stroke-width="0.9"/><path d="M174.0,37.0 h7.5" stroke="#334155" stroke-width="0.9"/><path d="M151.5,44.5 h7.5" stroke="#334155" stroke-width="0.9"/><path d="M159.0,44.5 h7.5" stroke="#334155" stroke-width="0.9"/><path d="M189.0,44.5 h7.5" stroke="#334155" stroke-width="0.9"/><path d="M159.0,52.0 h7.5" stroke="#334155" stroke-width="0.9"/><path d="M166.5,52.0 h7.5" stroke="#334155" stroke-width="0.9"/><path d="M174.0,52.0 h7.5" stroke="#334155" stroke-width="0.9"/><path d="M181.5,52.0 h7.5" stroke="#334155" stroke-width="0.9"/><path d="M151.5,67.0 h7.5" stroke="#334155" stroke-width="0.9"/><path d="M166.5,67.0 h7.5" stroke="#334155" stroke-width="0.9"/><path d="M174.0,67.0 h7.5" stroke="#334155" stroke-width="0.9"/><polyline points="155.25,70.75 162.75,70.75" fill="none" stroke="#2563eb" stroke-width="1.4" stroke-linejoin="round"/><circle cx="155.25" cy="70.75" r="1.6" fill="#2563eb"/><path d="M192.75,31.25 l-2,4 h4 Z" fill="#dc2626"/><circle cx="162.75" cy="70.75" r="2" fill="#2563eb" stroke="white" stroke-width="0.6"/><text x="205.5" y="42.0" text-anchor="start" font-family="Arial" font-size="10" fill="#334155">(1,0)</text><text x="205.5" y="56.0" text-anchor="start" font-family="Arial" font-size="10" fill="#334155">g=1</text><text x="205.5" y="70.0" text-anchor="start" font-family="Arial" font-size="10" fill="#334155">ĥ=9</text><rect x="14.0" y="26" width="88" height="52" rx="5" fill="#eff6ff" stroke="#2563eb" stroke-width="2"/><rect x="14.0" y="6" width="38" height="16" rx="4" fill="#2563eb"/><text x="19.0" y="18" font-family="Noto Sans KR" font-size="10" font-weight="bold" fill="white">1  시작</text><rect x="19.5" y="29.5" width="45" height="45" fill="white" stroke="#334155" stroke-width="0.9"/><path d="M27.0,29.5 v45 M19.5,37.0 h45" stroke="#e2e8f0" stroke-width="0.4"/><path d="M34.5,29.5 v45 M19.5,44.5 h45" stroke="#e2e8f0" stroke-width="0.4"/><path d="M42.0,29.5 v45 M19.5,52.0 h45" stroke="#e2e8f0" stroke-width="0.4"/><path d="M49.5,29.5 v45 M19.5,59.5 h45" stroke="#e2e8f0" stroke-width="0.4"/><path d="M57.0,29.5 v45 M19.5,67.0 h45" stroke="#e2e8f0" stroke-width="0.4"/><path d="M27.0,29.5 v7.5" stroke="#334155" stroke-width="0.9"/><path d="M27.0,59.5 v7.5" stroke="#334155" stroke-width="0.9"/><path d="M34.5,37.0 v7.5" stroke="#334155" stroke-width="0.9"/><path d="M34.5,59.5 v7.5" stroke="#334155" stroke-width="0.9"/><path d="M34.5,67.0 v7.5" stroke="#334155" stroke-width="0.9"/><path d="M42.0,29.5 v7.5" stroke="#334155" stroke-width="0.9"/><path d="M42.0,37.0 v7.5" stroke="#334155" stroke-width="0.9"/><path d="M42.0,52.0 v7.5" stroke="#334155" stroke-width="0.9"/><path d="M49.5,44.5 v7.5" stroke="#334155" stroke-width="0.9"/><path d="M49.5,59.5 v7.5" stroke="#334155" stroke-width="0.9"/><path d="M57.0,37.0 v7.5" stroke="#334155" stroke-width="0.9"/><path d="M57.0,52.0 v7.5" stroke="#334155" stroke-width="0.9"/><path d="M57.0,59.5 v7.5" stroke="#334155" stroke-width="0.9"/><path d="M42.0,37.0 h7.5" stroke="#334155" stroke-width="0.9"/><path d="M19.5,44.5 h7.5" stroke="#334155" stroke-width="0.9"/><path d="M27.0,44.5 h7.5" stroke="#334155" stroke-width="0.9"/><path d="M57.0,44.5 h7.5" stroke="#334155" stroke-width="0.9"/><path d="M27.0,52.0 h7.5" stroke="#334155" stroke-width="0.9"/><path d="M34.5,52.0 h7.5" stroke="#334155" stroke-width="0.9"/><path d="M42.0,52.0 h7.5" stroke="#334155" stroke-width="0.9"/><path d="M49.5,52.0 h7.5" stroke="#334155" stroke-width="0.9"/><path d="M19.5,67.0 h7.5" stroke="#334155" stroke-width="0.9"/><path d="M34.5,67.0 h7.5" stroke="#334155" stroke-width="0.9"/><path d="M42.0,67.0 h7.5" stroke="#334155" stroke-width="0.9"/><polyline points="23.25,70.75" fill="none" stroke="#2563eb" stroke-width="1.4" stroke-linejoin="round"/><circle cx="23.25" cy="70.75" r="1.6" fill="#2563eb"/><path d="M60.75,31.25 l-2,4 h4 Z" fill="#dc2626"/><circle cx="23.25" cy="70.75" r="2" fill="#2563eb" stroke="white" stroke-width="0.6"/><text x="73.5" y="42.0" text-anchor="start" font-family="Arial" font-size="10" fill="#334155">(0,0)</text><text x="73.5" y="56.0" text-anchor="start" font-family="Arial" font-size="10" fill="#334155">g=0</text><text x="73.5" y="70.0" text-anchor="start" font-family="Arial" font-size="10" fill="#334155">ĥ=10</text></svg>