<svg xmlns="http://www.w3.org/2000/svg" xmlns:xlink="http://www.w3.org/1999/xlink" xmlns:inkscape="http://www.inkscape.org/namespaces/inkscape" version="1.1" viewBox="221.43 103.67 169.23 150.56">
<defs>
<clipPath id="clip_0">
<path transform="matrix(.1,0,0,-.1,0,792)" d="M2258.11 5377.27H3861.9202V6840.02H2258.11Z"/>
</clipPath>
</defs>
<g clip-path="url(#clip_0)">
<path transform="matrix(.1,0,0,-.1,0,792)" d="M2264.14 5491.52H3571.3399V6545.11H2264.14Z" fill="#ffffff"/>
<path transform="matrix(.1,0,0,-.1,0,792)" stroke-width="9.96342" stroke-linecap="butt" stroke-miterlimit="8" stroke-linejoin="miter" fill="none" stroke="#000000" d="M2264.14 5491.52H3571.3399V6545.11H2264.14Z"/>
<path transform="matrix(.1,0,0,-.1,0,792)" d="M3427.88 6545.11C3427.88 6625.14 3492.44 6690.03 3572.07 6690.03 3651.7 6690.03 3716.27 6625.14 3716.27 6545.11 3716.27 6465.07 3651.7 6400.18 3572.07 6400.18 3492.44 6400.18 3427.88 6465.07 3427.88 6545.11ZM3427.88 6545.11" fill="#ffffff" fill-rule="evenodd"/>
<path transform="matrix(.1,0,0,-.1,0,792)" stroke-width="9.96342" stroke-linecap="butt" stroke-miterlimit="8" stroke-linejoin="miter" fill="none" stroke="#000000" d="M3427.88 6545.11C3427.88 6625.14 3492.44 6690.03 3572.07 6690.03 3651.7 6690.03 3716.27 6625.14 3716.27 6545.11 3716.27 6465.07 3651.7 6400.18 3572.07 6400.18 3492.44 6400.18 3427.88 6465.07 3427.88 6545.11ZM3427.88 6545.11"/>
<path transform="matrix(.1,0,0,-.1,0,792)" stroke-width="9.96342" stroke-linecap="butt" stroke-miterlimit="8" stroke-linejoin="miter" fill="none" stroke="#000000" d="M3571.3 6690.03H2936.59"/>
<path transform="matrix(.1,0,0,-.1,0,792)" d="M2648.19 6545.11H2936.585V6833.505H2648.19Z" fill="#ffffff"/>
<path transform="matrix(.1,0,0,-.1,0,792)" stroke-width="9.96342" stroke-linecap="butt" stroke-miterlimit="8" stroke-linejoin="miter" fill="none" stroke="#000000" d="M2648.19 6545.11H2936.585V6833.505H2648.19Z"/>
<path transform="matrix(.1,0,0,-.1,0,792)" d="M3568.45 5829.19H3856.845V6119.034H3568.45Z" fill="#ffffff"/>
<path transform="matrix(.1,0,0,-.1,0,792)" stroke-width="9.96342" stroke-linecap="butt" stroke-miterlimit="8" stroke-linejoin="miter" fill="none" stroke="#000000" d="M3568.45 5829.19H3856.845V6119.034H3568.45Z"/>
<path transform="matrix(.1,0,0,-.1,0,792)" stroke-width="9.96342" stroke-linecap="butt" stroke-miterlimit="8" stroke-linejoin="miter" fill="none" stroke="#000000" d="M3715.91 6545.11 3711.92 6118.57"/>
<path transform="matrix(.1,0,0,-.1,0,792)" d="M2837.68 6715.23C2838.76 6719.35 2839 6720.5 2848.01 6720.5 2850.77 6720.5 2851.85 6720.5 2851.85 6722.79 2851.85 6724.05 2850.64 6724.05 2848.61 6724.05H2832.76C2829.63 6724.05 2829.52 6724.05 2828.08 6721.87L2784.26 6656.57 2774.9 6721.42C2774.54 6724.05 2774.3 6724.05 2771.17 6724.05H2754.72C2752.45 6724.05 2751.13 6724.05 2751.13 6721.87 2751.13 6720.5 2752.22 6720.5 2754.61 6720.5 2756.17 6720.5 2758.33 6720.39 2759.77 6720.27 2761.69 6720.04 2762.41 6719.7 2762.41 6718.44 2762.41 6717.98 2762.29 6717.64 2761.92 6716.26L2746.68 6657.94C2745.49 6653.35 2743.45 6649.69 2733.73 6649.34 2733.11 6649.34 2731.57 6649.23 2731.57 6647.17 2731.57 6646.14 2732.28 6645.8 2733.24 6645.8 2737.08 6645.8 2741.29 6646.14 2745.24 6646.14 2749.34 6646.14 2753.65 6645.8 2757.61 6645.8 2758.22 6645.8 2759.77 6645.8 2759.77 6648.08 2759.77 6649.34 2758.45 6649.34 2757.61 6649.34 2750.77 6649.46 2749.45 6651.75 2749.45 6654.39 2749.45 6655.19 2749.56 6655.76 2749.92 6657.02L2766.26 6719.46H2766.38L2776.7 6648.43C2776.94 6647.06 2777.06 6645.8 2778.51 6645.8 2779.82 6645.8 2780.53 6647.06 2781.14 6647.86L2829.63 6720.39H2829.77L2812.59 6654.73C2811.39 6650.27 2811.15 6649.34 2801.66 6649.34 2799.62 6649.34 2798.3 6649.34 2798.3 6647.17 2798.3 6645.8 2799.75 6645.8 2800.11 6645.8 2803.48 6645.8 2811.64 6646.14 2814.99 6646.14 2819.91 6646.14 2825.09 6645.8 2829.99 6645.8 2830.72 6645.8 2832.29 6645.8 2832.29 6648.08 2832.29 6649.34 2831.2 6649.34 2828.92 6649.34 2824.47 6649.34 2821.11 6649.34 2821.11 6651.41 2821.11 6651.86 2821.11 6652.09 2821.72 6654.16ZM2837.68 6715.23" fill-rule="evenodd"/>
<path transform="matrix(.1,0,0,-.1,0,792)" d="M3669.17 5946.3C3668.8 5944.34 3668.07 5941.31 3668.07 5940.66 3668.07 5938.3 3669.78 5937.13 3671.61 5937.13 3673.07 5937.13 3675.27 5938.17 3676.13 5940.79 3676.26 5941.05 3677.72 5947.23 3678.45 5950.5L3681.14 5962.3C3681.86 5965.2 3682.61 5968.08 3683.21 5971.1 3683.69 5973.33 3684.67 5977.13 3684.79 5977.64 3686.64 5981.72 3693.1 5993.66 3704.71 5993.66 3710.2 5993.66 3711.29 5988.8 3711.29 5984.47 3711.29 5981.2 3710.43 5977.52 3709.46 5973.59L3706.04 5958.37 3703.6 5948.4C3703.11 5945.78 3702.01 5941.31 3702.01 5940.66 3702.01 5938.3 3703.72 5937.13 3705.54 5937.13 3709.34 5937.13 3710.06 5940.4 3711.05 5944.61 3712.76 5951.93 3717.27 5971.1 3718.37 5976.21 3718.73 5977.92 3725.21 5993.66 3738.52 5993.66 3743.76 5993.66 3745.11 5989.2 3745.11 5984.47 3745.11 5976.99 3739.98 5962.04 3737.55 5955.1 3736.45 5951.93 3735.95 5950.5 3735.95 5947.88 3735.95 5941.72 3740.23 5937.13 3745.96 5937.13 3757.45 5937.13 3761.96 5956.27 3761.96 5957.33 3761.96 5958.63 3760.86 5958.63 3760.5 5958.63 3759.27 5958.63 3759.27 5958.25 3758.66 5956.27 3756.83 5949.32 3752.92 5940.01 3746.21 5940.01 3744.14 5940.01 3743.28 5941.31 3743.28 5944.34 3743.28 5947.62 3744.39 5950.77 3745.47 5953.65 3747.79 5960.47 3752.92 5975.02 3752.92 5982.5 3752.92 5991.04 3748.04 5996.54 3738.88 5996.54 3729.73 5996.54 3723.5 5990.78 3718.98 5983.82 3718.87 5985.52 3718.5 5989.98 3715.09 5993.13 3712.02 5995.88 3708.11 5996.54 3705.07 5996.54 3694.08 5996.54 3688.1 5988.14 3686.01 5985.13 3685.4 5992.6 3680.29 5996.54 3674.78 5996.54 3669.17 5996.54 3666.85 5991.43 3665.75 5989.06 3663.55 5984.47 3661.97 5976.74 3661.97 5976.34 3661.97 5975.02 3663.18 5975.02 3663.43 5975.02 3664.65 5975.02 3664.78 5975.15 3665.5 5978.05 3667.58 5987.36 3670.02 5993.66 3674.41 5993.66 3676.37 5993.66 3678.2 5992.6 3678.2 5987.61 3678.2 5984.87 3677.83 5983.43 3676.26 5976.6ZM3669.17 5946.3" fill-rule="evenodd"/>
<path transform="matrix(.1,0,0,-.1,0,792)" d="M3715.24 5544.87H3708.5955V5826.292H3715.24ZM3731.85 5551.5 3711.92 5511.65 3691.99 5551.5ZM3731.85 5551.5" fill="#e97132"/>
<path transform="matrix(.1,0,0,-.1,0,792)" d="M3637.39 5412.99C3637.02 5411.03 3636.28 5408 3636.28 5407.35 3636.28 5404.99 3638.01 5403.81 3639.87 5403.81 3641.36 5403.81 3643.57 5404.85 3644.44 5407.48 3644.58 5407.74 3646.06 5413.91 3646.8 5417.18L3649.53 5429C3650.27 5431.88 3651.01 5434.77 3651.64 5437.79 3652.13 5440.01 3653.13 5443.81 3653.24 5444.33 3655.1 5448.4 3661.66 5460.34 3673.43 5460.34 3679.01 5460.34 3680.13 5455.49 3680.13 5451.16 3680.13 5447.88 3679.25 5444.2 3678.27 5440.27L3674.79 5425.06 3672.32 5415.09C3671.82 5412.46 3670.71 5408 3670.71 5407.35 3670.71 5404.99 3672.45 5403.81 3674.3 5403.81 3678.14 5403.81 3678.88 5407.09 3679.88 5411.29 3681.6 5418.62 3686.2 5437.79 3687.32 5442.89 3687.68 5444.61 3694.25 5460.34 3707.75 5460.34 3713.07 5460.34 3714.43 5455.89 3714.43 5451.16 3714.43 5443.68 3709.23 5428.73 3706.75 5421.78 3705.63 5418.62 3705.14 5417.18 3705.14 5414.57 3705.14 5408.41 3709.48 5403.81 3715.3 5403.81 3726.95 5403.81 3731.53 5422.95 3731.53 5424.02 3731.53 5425.31 3730.41 5425.31 3730.04 5425.31 3728.8 5425.31 3728.8 5424.93 3728.18 5422.95 3726.32 5416 3722.35 5406.7 3715.54 5406.7 3713.45 5406.7 3712.57 5408 3712.57 5411.03 3712.57 5414.3 3713.69 5417.45 3714.8 5420.33 3717.15 5427.16 3722.35 5441.71 3722.35 5449.19 3722.35 5457.73 3717.4 5463.23 3708.11 5463.23 3698.82 5463.23 3692.52 5457.46 3687.92 5450.5 3687.8 5452.2 3687.43 5456.66 3683.96 5459.81 3680.86 5462.58 3676.91 5463.23 3673.8 5463.23 3662.66 5463.23 3656.59 5454.84 3654.49 5451.81 3653.86 5459.29 3648.66 5463.23 3643.08 5463.23 3637.39 5463.23 3635.04 5458.11 3633.93 5455.75 3631.69 5451.16 3630.09 5443.42 3630.09 5443.03 3630.09 5441.71 3631.32 5441.71 3631.57 5441.71 3632.81 5441.71 3632.92 5441.84 3633.68 5444.73 3635.78 5454.04 3638.26 5460.34 3642.72 5460.34 3644.69 5460.34 3646.56 5459.29 3646.56 5454.3 3646.56 5451.55 3646.18 5450.12 3644.58 5443.29ZM3637.39 5412.99" fill-rule="evenodd"/>
<path transform="matrix(.1,0,0,-.1,0,792)" d="M3792.04 5454.64C3792.15 5455.43 3792.4 5456.09 3792.4 5457.01 3792.4 5459.26 3790.92 5460.58 3788.83 5460.58 3787.6 5460.58 3784.27 5459.67 3783.77 5454.89 3781.56 5459.79 3777.25 5463.23 3772.33 5463.23 3758.3 5463.23 3743.02 5444.72 3743.02 5425.69 3743.02 5412.61 3750.53 5404.82 3759.4 5404.82 3766.66 5404.82 3772.46 5411.03 3773.69 5412.48L3773.8 5412.35C3771.23 5400.58 3769.75 5395.16 3769.75 5394.89 3769.26 5393.71 3765.07 5380.62 3752.01 5380.62 3749.68 5380.62 3745.6 5380.75 3742.15 5381.96 3745.85 5383.14 3747.21 5386.58 3747.21 5388.83 3747.21 5390.94 3745.85 5393.45 3742.53 5393.45 3739.82 5393.45 3735.88 5391.07 3735.88 5385.79 3735.88 5380.37 3740.43 5377.72 3752.25 5377.72 3767.64 5377.72 3776.51 5388.03 3778.35 5395.96ZM3776.02 5421.72C3775.28 5418.29 3772.46 5414.98 3769.75 5412.48 3767.15 5410.1 3763.34 5407.73 3759.76 5407.73 3753.62 5407.73 3751.76 5414.6 3751.76 5419.88 3751.76 5426.21 3755.34 5441.81 3758.66 5448.56 3761.98 5455.02 3767.28 5460.32 3772.46 5460.32 3780.57 5460.32 3782.3 5449.61 3782.3 5448.96 3782.3 5448.29 3782.05 5447.51 3781.94 5446.97ZM3776.02 5421.72" fill-rule="evenodd"/>
</g>
</svg>